Motion_sv04_j
version=1
nRows=15
nColumns=43
inDegrees=yes
endheader
time	pelvis_tilt	pelvis_list	pelvis_rotation	pelvis_tx	pelvis_ty	pelvis_tz	hip_flexion_r	hip_adduction_r	hip_rotation_r	knee_angle_r	ankle_angle_r	subtalar_angle_r	mtp_angle_r	hip_flexion_l	hip_adduction_l	hip_rotation_l	knee_angle_l	ankle_angle_l	subtalar_angle_l	mtp_angle_l	lumbar_extension	lumbar_bending	lumbar_rotation	neck_flexion	neck_lateral_bending	neck_rotation	arm_flex_r	arm_add_r	arm_rot_r	elbow_flex_r	pro_sup_r	wrist_flex_r	wrist_dev_r	hand_finger_flex_r	arm_flex_l	arm_add_l	arm_rot_l	elbow_flex_l	pro_sup_l	wrist_flex_l	wrist_dev_l	hand_finger_flex_l
      0.00250000	     -1.67062407	     -5.32402013	    -91.24876391	     -0.07138081	      0.95893340	      0.21385325	    -12.74023129	     -1.88889619	    -13.12824438	      0.26859127	     11.05246805	     17.56332106	     -1.70620307	    -13.83463346	     -7.41681715	    -22.03999647	     -0.06897323	      4.51683588	     34.23929496	      7.72473163	    -10.23897096	      1.62016738	     -1.20596849	     10.47584581	      3.96911351	     -0.23152743	    -34.99546403	    -61.42486821	   -113.95337629	     45.97545973	     81.29774333	      4.65735967	     13.26249382	    -41.87449426	    -53.61783991	    -61.06831730	   -121.72411379	     40.90534827	     73.77310051	    -13.63746225	     15.22142976	    -12.80184364
      0.00500000	     -1.70556571	     -5.27394581	    -91.25837661	     -0.07142528	      0.95878486	      0.21386668	    -12.71770377	     -1.85635125	    -13.00966954	      0.33524003	     11.08279537	     17.67556867	     -1.69680658	    -13.85141049	     -7.45883610	    -21.87740812	      0.06015738	      4.69118642	     34.45177931	      7.75177084	    -10.19809398	      1.62625321	     -1.06851699	     10.56391973	      4.07334542	     -0.40057638	    -34.87584699	    -61.26805879	   -114.22879916	     46.04836398	     81.31609197	      4.46277484	     13.15783468	    -41.83214762	    -53.45061174	    -61.09648659	   -121.60053925	     41.17795203	     73.72369098	    -13.57118206	     15.37874736	    -12.90790408
      0.00750000	     -1.70606735	     -5.26912015	    -91.24835224	     -0.07132684	      0.95867511	      0.21396461	    -12.72335771	     -1.86125687	    -13.01054109	      0.33279107	     11.08296823	     17.67539245	     -1.69672193	    -13.85055561	     -7.46054377	    -21.87845725	      0.05915961	      4.69151421	     34.45237758	      7.75188134	    -10.19841253	      1.62947033	     -1.05536621	     10.56457584	      4.07386862	     -0.40233633	    -34.87393910	    -61.26432913	   -114.22877695	     46.04775379	     81.31661891	      4.46131399	     13.15718565	    -41.83111460	    -53.44770606	    -61.09145479	   -121.59932991	     41.17633976	     73.72329223	    -13.57129159	     15.38140820	    -12.90966500
      0.01000000	     -1.70577923	     -5.26635081	    -91.24533982	     -0.07127779	      0.95861202	      0.21407955	    -12.72424489	     -1.86222451	    -13.01073407	      0.33253043	     11.08305885	     17.67535908	     -1.69670023	    -13.85066953	     -7.46039274	    -21.87858681	      0.05887540	      4.69161819	     34.45255395	      7.75190859	    -10.20020548	      1.63099051	     -1.05140063	     10.56481641	      4.07401281	     -0.40269104	    -34.87269635	    -61.26327110	   -114.22883364	     46.04755590	     81.31673705	      4.46091576	     13.15702083	    -41.83095019	    -53.44719891	    -61.09111065	   -121.59893152	     41.17636722	     73.72321125	    -13.57122851	     15.38186313	    -12.90997598
      0.01250000	     -1.71248418	     -5.27939467	    -91.28142187	     -0.07131624	      0.95870902	      0.21394235	    -12.75099772	     -1.85494071	    -13.05852233	      0.38078575	     11.12338720	     17.69589011	     -1.68853110	    -13.86167838	     -7.45613477	    -21.93951801	      0.04602529	      4.75710221	     34.52291202	      7.76467270	    -10.22659659	      1.62948319	     -0.88951486	     10.71377851	      4.13529465	     -0.55081316	    -34.56067876	    -61.08952741	   -114.55348798	     46.21249263	     81.37793997	      4.24023011	     13.00268825	    -41.78342855	    -53.23966927	    -61.17468936	   -121.34421648	     41.29680703	     73.68898120	    -13.50731368	     15.54858559	    -13.01932640
      0.01500000	     -1.71117907	     -5.27809214	    -91.27948168	     -0.07128999	      0.95863988	      0.21398641	    -12.75151388	     -1.85579588	    -13.05842986	      0.38033267	     11.12323563	     17.69600004	     -1.68854163	    -13.86186371	     -7.45674119	    -21.93968851	      0.04583970	      4.75706532	     34.52301101	      7.76467783	    -10.22785293	      1.63082148	     -0.88706632	     10.71355551	      4.13512298	     -0.55112102	    -34.56072112	    -61.08882542	   -114.55301022	     46.21265197	     81.37817850	      4.24010497	     13.00260786	    -41.78314543	    -53.23920280	    -61.17390714	   -121.34425279	     41.29661599	     73.68895841	    -13.50747537	     15.54889270	    -13.01971530
      0.01750000	     -1.70953656	     -5.27759713	    -91.27802758	     -0.07127290	      0.95858823	      0.21399218	    -12.75216395	     -1.85722624	    -13.05838922	      0.37990068	     11.12313664	     17.69609825	     -1.68854314	    -13.86201651	     -7.45707261	    -21.93984525	      0.04567304	      4.75707843	     34.52315983	      7.76468968	    -10.22845626	      1.63349850	     -0.88486578	     10.71340098	      4.13489874	     -0.55148452	    -34.56069320	    -61.08739518	   -114.55254265	     46.21290850	     81.37845102	      4.23990653	     13.00248180	    -41.78283736	    -53.23872426	    -61.17319354	   -121.34428048	     41.29648590	     73.68893469	    -13.50763898	     15.54923112	    -13.02015162
      0.02000000	     -1.70857350	     -5.27799393	    -91.27791863	     -0.07127522	      0.95855885	      0.21398285	    -12.75235403	     -1.85788589	    -13.05838654	      0.37977577	     11.12311163	     17.69613286	     -1.68854161	    -13.86197168	     -7.45711580	    -21.93989628	      0.04565434	      4.75709515	     34.52322600	      7.76469501	    -10.22845120	      1.63510311	     -0.88439240	     10.71335454	      4.13479588	     -0.55163355	    -34.56070009	    -61.08655789	   -114.55234163	     46.21303007	     81.37855764	      4.23982286	     13.00242779	    -41.78271560	    -53.23853292	    -61.17298299	   -121.34425731	     41.29645415	     73.68892402	    -13.50768975	     15.54937196	    -13.02032103
      0.02250000	     -1.70740931	     -5.27866502	    -91.27817170	     -0.07127931	      0.95853391	      0.21396660	    -12.75249987	     -1.85859540	    -13.05839182	      0.37967428	     11.12309943	     17.69616548	     -1.68853793	    -13.86185705	     -7.45716507	    -21.93994313	      0.04567770	      4.75712273	     34.52329300	      7.76470094	    -10.22834779	      1.63698945	     -0.88421846	     10.71330339	      4.13466850	     -0.55178429	    -34.56075725	    -61.08559758	   -114.55209924	     46.21320960	     81.37865935	      4.23975178	     13.00236978	    -41.78258976	    -53.23834620	    -61.17285235	   -121.34420964	     41.29644150	     73.68891216	    -13.50772971	     15.54951871	    -13.02048774
      0.02500000	     -1.70643760	     -5.27948773	    -91.27869417	     -0.07128399	      0.95851997	      0.21394832	    -12.75257730	     -1.85936785	    -13.05840629	      0.37960024	     11.12309862	     17.69619537	     -1.68853244	    -13.86166775	     -7.45718483	    -21.93998197	      0.04573573	      4.75715859	     34.52336298	      7.76470717	    -10.22823075	      1.63882827	     -0.88431519	     10.71323932	      4.13450994	     -0.55193463	    -34.56088326	    -61.08462965	   -114.55181660	     46.21346707	     81.37875484	      4.23970059	     13.00230682	    -41.78245792	    -53.23815555	    -61.17278948	   -121.34412913	     41.29643405	     73.68889788	    -13.50775801	     15.54967596	    -13.02065161
      0.02750000	     -1.70577586	     -5.28034860	    -91.27931033	     -0.07128795	      0.95851413	      0.21393343	    -12.75257616	     -1.86017840	    -13.05842966	      0.37954350	     11.12310377	     17.69622381	     -1.68852597	    -13.86142318	     -7.45715886	    -21.94001119	      0.04581414	      4.75719854	     34.52343639	      7.76471328	    -10.22818858	      1.64048510	     -0.88452919	     10.71315968	      4.13432159	     -0.55208297	    -34.56105904	    -61.08370935	   -114.55148073	     46.21378847	     81.37884353	      4.23967511	     13.00224428	    -41.78231831	    -53.23795274	    -61.17276175	   -121.34401355	     41.29641410	     73.68888077	    -13.50777602	     15.54984733	    -13.02081302
      0.03000000	     -1.70541100	     -5.28113387	    -91.27984866	     -0.07128991	      0.95851292	      0.21392474	    -12.75250638	     -1.86098727	    -13.05846331	      0.37948342	     11.12311114	     17.69625206	     -1.68851913	    -13.86117213	     -7.45707461	    -21.94003064	      0.04588802	      4.75723954	     34.52351380	      7.76471916	    -10.22827185	      1.64193104	     -0.88469274	     10.71306676	      4.13410860	     -0.55222842	    -34.56125454	    -61.08285468	   -114.55108138	     46.21414828	     81.37892593	      4.23967734	     13.00218839	    -41.78217032	    -53.23773356	    -61.17273382	   -121.34386645	     41.29636807	     73.68886110	    -13.50778641	     15.55003386	    -13.02097259
      0.03250000	     -1.70529601	     -5.28177572	    -91.28017677	     -0.07128907	      0.95851405	      0.21392257	    -12.75237804	     -1.86176184	    -13.05851108	      0.37939873	     11.12311866	     17.69628056	     -1.68851222	    -13.86097335	     -7.45691981	    -21.94004118	      0.04592975	      4.75728047	     34.52359551	      7.76472497	    -10.22848174	      1.64318122	     -0.88467433	     10.71296595	      4.13387785	     -0.55237071	    -34.56144203	    -61.08205841	   -114.55061666	     46.21451781	     81.37900289	      4.23970604	     13.00214451	    -41.78201414	    -53.23749685	    -61.17267061	   -121.34369467	     41.29628434	     73.68884001	    -13.50779252	     15.55023448	    -13.02113123
      0.03500000	     -1.70532738	     -5.28226279	    -91.28021598	     -0.07128599	      0.95851498	      0.21392671	    -12.75218919	     -1.86247103	    -13.05857737	      0.37927405	     11.12312543	     17.69630937	     -1.68850544	    -13.86087377	     -7.45667987	    -21.94004373	      0.04591690	      4.75732118	     34.52368220	      7.76473101	    -10.22879925	      1.64431210	     -0.88439262	     10.71286366	      4.13363763	     -0.55251013	    -34.56159737	    -61.08129347	   -114.55008795	     46.21486860	     81.37907576	      4.23975789	     13.00211716	    -41.78185061	    -53.23724155	    -61.17254605	   -121.34350275	     41.29615623	     73.68881846	    -13.50779670	     15.55044794	    -13.02128943
      0.03750000	     -1.70542344	     -5.28262697	    -91.27997133	     -0.07128095	      0.95851476	      0.21393503	    -12.75194131	     -1.86308901	    -13.05866667	      0.37909565	     11.12313192	     17.69633831	     -1.68849875	    -13.86090689	     -7.45634840	    -21.94003989	      0.04583486	      4.75736306	     34.52377425	      7.76473767	    -10.22917241	      1.64538391	     -0.88384727	     10.71276682	      4.13339354	     -0.55264738	    -34.56171020	    -61.08052448	   -114.54950361	     46.21517952	     81.37914594	      4.23982814	     13.00210899	    -41.78168109	    -53.23696746	    -61.17234703	   -121.34329260	     41.29598110	     73.68879752	    -13.50779987	     15.55067233	    -13.02144741
